<?xml version="1.0" encoding="utf-8"?>
<!-- Generator: Adobe Illustrator 24.1.1, SVG Export Plug-In . SVG Version: 6.00 Build 0)  -->
<svg version="1.1" id="Orbit" xmlns="http://www.w3.org/2000/svg" x="0px" y="0px"
     viewBox="0 0 1366 768" style="enable-background:new 0 0 1366 768;" xml:space="preserve">
<style type="text/css">
	.st0{fill:#D6D6D6;}
</style>
    <g id="Path2">
	<path class="st0" d="M678.54,195.23v0.75c56.3,0,108.93,20.63,144.37,56.6c15.89,16.13,28.16,35.07,36.48,56.3
		c8.94,22.82,13.26,48.26,12.86,75.63c0.4,27.34-3.93,52.77-12.87,75.59c-8.32,21.23-20.59,40.17-36.49,56.3
		c-35.46,35.98-88.09,56.62-144.4,56.62c-56.32,0-108.95-20.63-144.4-56.61c-15.89-16.13-28.16-35.07-36.48-56.3
		c-8.94-22.82-13.26-48.26-12.86-75.64c-0.4-27.33,3.93-52.76,12.87-75.58c8.31-21.22,20.59-40.16,36.47-56.28
		c35.46-35.98,88.09-56.63,144.41-56.63L678.54,195.23 M678.51,195.23c-98.16,0.01-196.35,63.1-194.51,189.25
		c-1.86,126.2,96.31,189.28,194.49,189.28c98.16,0,196.35-63.1,194.51-189.27C874.86,258.31,776.69,195.22,678.51,195.23
		L678.51,195.23z"/>
</g>
    <g id="Path1">
	<path class="st0" d="M673.57,24.71c107.43,0,207.85,39.37,275.49,108.02c30.34,30.79,53.76,66.95,69.64,107.47
		c17.06,43.56,25.32,92.1,24.55,144.31c0.76,52.17-7.5,100.7-24.57,144.25c-15.88,40.52-39.31,76.68-69.65,107.47
		c-67.67,68.67-168.1,108.05-275.55,108.05c-107.46,0-207.9-39.38-275.55-108.03c-30.34-30.79-53.77-66.95-69.64-107.48
		c-17.06-43.56-25.32-92.11-24.55-144.32c-0.76-52.16,7.5-100.68,24.56-144.22c15.87-40.51,39.3-76.66,69.63-107.44
		C465.61,64.12,566.05,24.73,673.51,24.71H673.57 M673.51,23.96C486.53,23.99,299.49,144.16,303,384.47
		c-3.54,240.4,183.45,360.56,370.48,360.56c186.99,0,374.02-120.2,370.51-360.53C1047.54,144.11,860.55,23.94,673.51,23.96
		L673.51,23.96z"/>
</g>
    <g id="Object1">
	<g>
		<path class="st0" d="M554.35,38.81c0.33,24.15-35.48,24.15-35.15,0C518.88,14.66,554.68,14.66,554.35,38.81z"/>
	</g>
        <g>
		<path class="st0" d="M536.78,14.67v1c6.39,0,12.43,2.41,16.57,6.61c4.15,4.21,6.3,10.05,6.21,16.91
			c0.09,6.83-2.05,12.67-6.21,16.88c-4.14,4.2-10.18,6.61-16.57,6.61c-6.39,0-12.43-2.41-16.57-6.61
			c-4.15-4.21-6.3-10.05-6.21-16.91c-0.09-6.83,2.05-12.67,6.21-16.88c4.14-4.2,10.18-6.61,16.57-6.61L536.78,14.67 M536.78,14.67
			c-12,0-24,8.17-23.78,24.5c-0.22,16.34,11.78,24.51,23.78,24.51c12,0,24-8.17,23.78-24.5C560.78,22.84,548.78,14.67,536.78,14.67
			L536.78,14.67z"/>
	</g>
</g>
    <g id="Object2">
	<g>
		<path class="st0" d="M500.07,441.84c0.14,10.55-15.5,10.55-15.36,0C484.57,431.29,500.21,431.29,500.07,441.84z"/>
	</g>
        <g>
		<path class="st0" d="M492.39,431.29v1c2.64,0,5.13,0.99,6.84,2.72c1.71,1.73,2.59,4.14,2.55,7c0.04,2.83-0.84,5.24-2.55,6.97
			c-1.71,1.73-4.2,2.72-6.84,2.72c-2.64,0-5.13-0.99-6.84-2.72c-1.71-1.73-2.59-4.14-2.55-7c-0.04-2.83,0.84-5.24,2.55-6.97
			c1.71-1.73,4.2-2.72,6.84-2.72L492.39,431.29 M492.39,431.29c-5.24,0-10.49,3.57-10.39,10.71c-0.1,7.14,5.14,10.71,10.39,10.71
			c5.24,0,10.49-3.57,10.39-10.71C502.88,434.86,497.63,431.29,492.39,431.29L492.39,431.29z"/>
	</g>
</g>
    <g id="Object3">
	<g>
		<path class="st0" d="M883.67,417.05c0.21,15.5-22.78,15.5-22.56,0C860.9,401.55,883.88,401.55,883.67,417.05z"/>
	</g>
        <g>
		<path class="st0" d="M872.75,401.45v1c4.14,0,8.05,1.56,10.73,4.28c2.69,2.72,4.07,6.51,4.01,10.97
			c0.06,4.43-1.33,8.22-4.01,10.94c-2.68,2.72-6.59,4.28-10.74,4.28c-4.14,0-8.06-1.56-10.74-4.28c-2.69-2.72-4.07-6.51-4.01-10.97
			c-0.06-4.43,1.33-8.21,4.01-10.94c2.68-2.72,6.6-4.28,10.74-4.28L872.75,401.45 M872.75,401.45c-7.95,0-15.9,5.41-15.75,16.23
			c-0.15,10.82,7.8,16.23,15.75,16.23c7.95,0,15.9-5.41,15.75-16.23C888.65,406.85,880.7,401.44,872.75,401.45L872.75,401.45z"/>
	</g>
</g>
    <g id="Object4">
	<g>
		<path class="st0"
              d="M939.23,129.75c-8.48,8.71-21.23-4.03-12.51-12.51C935.2,108.52,947.94,121.27,939.23,129.75z"/>
	</g>
        <g>
		<path class="st0" d="M932.97,111.34v1c3.08,0,6,1.16,7.99,3.18c2,2.02,3.03,4.84,2.98,8.17c0.04,3.3-0.99,6.12-2.98,8.14
			c-1.99,2.02-4.91,3.18-7.99,3.18c-3.08,0-6-1.16-7.99-3.18c-2-2.02-3.03-4.84-2.98-8.17c-0.04-3.3,0.99-6.12,2.98-8.14
			c1.99-2.02,4.91-3.18,7.99-3.18L932.97,111.34 M932.97,111.34c-6.04,0-12.08,4.11-11.97,12.34c-0.11,8.23,5.93,12.34,11.97,12.34
			c6.04,0,12.08-4.11,11.97-12.34C945.06,115.45,939.02,111.34,932.97,111.34L932.97,111.34z"/>
	</g>
        <g>
		<path class="st0" d="M960.06,123.91c-3.17,1.88-0.98-8.84-1.59-9.63l-1.62,0.99c-0.32-1.37,0.46-2.17,1.62-2.73
			C961.73,110.51,959.4,123.21,960.06,123.91z"/>
            <path class="st0" d="M966.66,118.27c-6.78,4.81-4.42-11.44,1.71-4.22c1.24,2.24-1.71,10.64-4.57,9.86L966.66,118.27z
			 M966.74,117.29c1.31-1.56-0.49-4.59-2.33-2.83C963.1,116.01,964.92,119.1,966.74,117.29z"/>
            <path class="st0" d="M970.68,122.53c0.74-1.29,4.78-5.58,4.69-7.13c0.08-2.04-3.18-1.83-3.18,0.13c0.01,0.02-1.65,0-1.65,0.01
			c3.1-7.39,10.93-1.11,2.25,6.87c1.22,0.33,5.17-1.05,4.3,1.52C976.27,123.45,969.29,125.16,970.68,122.53z"/>
            <path class="st0" d="M978.92,122.24c2.25-0.45,1.6,1,1.67,2.53c0,0-1.67,1.73-1.67,1.73V122.24z"/>
            <path class="st0" d="M982.59,120.79c0.86-0.87,3.2-9.76,5.45-8.23l-3.72,8.13c1.09,0.39,6.67-1.16,5.57,1.48
			C989.13,121.67,981.08,123.48,982.59,120.79z M987.48,117.23c2.83-1.3,1.11,5.62,1.56,6.69c0,0-1.56,0-1.56,0V117.23z"/>
            <path class="st0" d="M991.69,120.79c0.86-0.87,3.2-9.76,5.45-8.23l-3.72,8.13c1.09,0.39,6.67-1.16,5.57,1.48
			C998.23,121.67,990.19,123.48,991.69,120.79z M996.59,117.23c2.83-1.3,1.11,5.62,1.56,6.69c0,0-1.56,0-1.56,0V117.23z"/>
	</g>
        <g>
		<path class="st0" d="M958.6,139.49c-1.14-0.31-2.53-0.78-1.18-1.85c0.93,0.87,2.74,1.14,3.78,0.5c2.18-2.65-2.86-1.92-3.74-3.33
			c-1.2-1.84,0.41-4.17,2.64-3.89c1.17,0.08,3.45,0.52,1.94,1.84c-1.07-0.93-3.68-1.18-3.78,0.62c0.09,1.55,2.42,1.15,3.41,1.73
			C964.81,136.98,961.49,140.64,958.6,139.49z"/>
            <path class="st0" d="M964.47,133.44c2.45-1.54,0.69,8.03,1.2,8.56C963.22,143.53,964.98,133.96,964.47,133.44z M966.21,139.33
			c-0.75-0.31-0.61-1.41-0.54-2.04c3.17,5.41,3.21-6.99,0-1.66c-0.64-1.68,1.3-2.88,2.69-2
			C970.31,135.17,969.52,141.02,966.21,139.33z"/>
            <path class="st0" d="M971.27,139.14c-2.58-2.44,3.15-4.85,3.31-2.26c-4.25-0.94-2.68,3.43-0.14,1.15
			C975.16,139.89,972.11,139.9,971.27,139.14z M974.44,135.66c-0.06-2.37-2.52-0.26-3.43-1.44c4.06-3.25,5.13,2.22,4.56,5.29
			C973.55,140.44,974.74,136.43,974.44,135.66z"/>
            <path class="st0" d="M978.42,139.3c-1.73-0.99-1.74-4.65,0-5.64c1.08-0.55,2.86-0.4,3.62,0.67c-0.5,0.5-0.87,0.94-1.46,0.32
			c-3.65-1.36-2.38,6.21,0.6,3.18C983.4,139.29,979.55,140.07,978.42,139.3z"/>
            <path class="st0" d="M984.41,139.29c-4.8-3.9,4.02-9.67,3.74-2.33c-0.59-0.31-5.02,0.83-4.1-0.96c1.46,0.27,4.8-0.25,1.69-1.57
			c-2.91,0.29-1.16,5.98,1.46,3.49C989.24,139.3,985.43,140.04,984.41,139.29z"/>
            <path class="st0" d="M995.46,131c1.52-1.25,3.65,8.11,4.16,8.52c-1.93,1.31-3.03-6.21-3.65-6.87c-0.63,0.69-1.71,8.16-3.65,6.87
			L995.46,131z M993.77,136.51c0.72,0.35,5.51-0.95,4.48,1.14C997.52,137.3,992.74,138.6,993.77,136.51z"/>
	</g>
</g>
    <g id="Object5">
	<g>
		<path class="st0" d="M465.53,679.32c0.16,11.99-17.62,11.99-17.45,0C447.92,667.33,465.7,667.33,465.53,679.32z"/>
	</g>
        <g>
		<path class="st0" d="M456.81,667.33v1c3.04,0,5.9,1.14,7.87,3.13c1.97,1.99,2.98,4.77,2.94,8.05c0.04,3.25-0.97,6.03-2.94,8.02
			c-1.96,1.99-4.83,3.13-7.87,3.13c-3.04,0-5.91-1.14-7.87-3.13c-1.97-1.99-2.98-4.77-2.94-8.05c-0.04-3.25,0.97-6.03,2.94-8.02
			c1.96-1.99,4.83-3.13,7.87-3.13L456.81,667.33 M456.81,667.33c-5.96,0-11.92,4.06-11.81,12.17c-0.11,8.11,5.85,12.17,11.81,12.17
			c5.96,0,11.92-4.06,11.81-12.17C468.72,671.39,462.76,667.33,456.81,667.33L456.81,667.33z"/>
	</g>
        <g>
		<path class="st0" d="M432.52,712.27c1.02-1.77,6.58-7.68,6.45-9.81c0.11-2.81-4.37-2.52-4.37,0.17c0.02,0.03-2.27,0-2.27,0.01
			c3.34-9.57,15.63-2.59,3.09,9.44h5.91v2.08C439.93,713.63,430.99,715.76,432.52,712.27z"/>
            <path class="st0" d="M445.26,713.16c-1.94-1.6-0.88-8.13-1.13-10.37c-0.52-5.91,9.44-5.92,8.92,0
			C453.77,708,452.82,718.23,445.26,713.16z M450.3,711.64c1.08-0.89,0.36-7.58,0.55-8.85c0.34-3.14-4.87-3.14-4.53,0
			C446.58,705.35,444.78,715.07,450.3,711.64z"/>
            <path class="st0" d="M455.35,711.88c3.23-0.55,2.14,1.29,2.3,3.48c0,0-2.3,2.38-2.3,2.38V711.88z"/>
            <path class="st0"
                  d="M464.37,714.17h-2.19v-13.23l-2.22,1.36c-0.37-2.11,0.5-2.82,2.22-3.75c0,0,2.19,0,2.19,0V714.17z"/>
            <path class="st0" d="M469.65,713.86c-1.42-0.68-2.17-1.98-2.37-3.57h2.23c2.69,6.46,8.39-4.07,1.45-3.19
			c-0.42-3.26,0.87-1.31,2.53-2.63c1.88-2.24-1.15-5.68-3.28-3.11c-0.15,1.32-1.65,1.12-2.67,1.09c1.31-8.94,14.26-0.86,6.22,3.58
			C479.69,708.05,475.05,716.95,469.65,713.86z"/>
            <path class="st0" d="M479.34,709.88c1.19-1.33,4.38-13.25,7.5-11.31l-5.11,11.18c1.83,0.56,8.86-1.64,7.66,2.03
			C488.17,711.18,477.51,713.45,479.34,709.88z M486.07,704.99h2.14v9.2h-2.14V704.99z"/>
	</g>
        <g>
		<path class="st0" d="M436.6,729.49c-1.14-0.31-2.53-0.78-1.18-1.85c0.93,0.87,2.74,1.14,3.78,0.5c2.18-2.65-2.86-1.92-3.74-3.33
			c-1.2-1.84,0.41-4.17,2.64-3.89c1.17,0.08,3.45,0.52,1.94,1.84c-1.07-0.93-3.68-1.18-3.78,0.62c0.09,1.55,2.42,1.15,3.41,1.73
			C442.81,726.98,439.49,730.64,436.6,729.49z"/>
            <path class="st0" d="M442.47,723.44c2.45-1.54,0.69,8.03,1.2,8.56C441.22,733.53,442.98,723.96,442.47,723.44z M444.21,729.33
			c-0.75-0.31-0.61-1.41-0.54-2.04c3.17,5.41,3.21-6.99,0-1.66c-0.64-1.68,1.3-2.88,2.69-2
			C448.31,725.17,447.52,731.02,444.21,729.33z"/>
            <path class="st0" d="M449.27,729.14c-2.58-2.44,3.15-4.85,3.31-2.26c-4.25-0.94-2.68,3.43-0.14,1.15
			C453.16,729.89,450.11,729.9,449.27,729.14z M452.44,725.66c-0.06-2.37-2.52-0.26-3.43-1.44c4.06-3.25,5.13,2.22,4.56,5.29
			C451.55,730.44,452.74,726.43,452.44,725.66z"/>
            <path class="st0" d="M456.42,729.3c-1.73-0.99-1.74-4.65,0-5.64c1.08-0.55,2.86-0.4,3.62,0.67c-0.5,0.5-0.87,0.94-1.46,0.32
			c-3.65-1.36-2.38,6.21,0.6,3.18C461.4,729.29,457.55,730.07,456.42,729.3z"/>
            <path class="st0" d="M462.41,729.29c-4.8-3.9,4.02-9.67,3.74-2.33c-0.59-0.31-5.02,0.83-4.1-0.96c1.46,0.27,4.8-0.25,1.69-1.57
			c-2.91,0.29-1.16,5.98,1.46,3.49C467.24,729.3,463.43,730.04,462.41,729.29z"/>
            <path class="st0" d="M471.14,721c2.43-1.53,0.69,8,1.19,8.52C469.89,731.05,471.64,721.52,471.14,721z M471.84,728.41
			c5.36,0.9,5.3-3.67,0-2.72c-0.74-2.48,5.71,0.47,3.56-3.26c-0.55-0.55-2.82-0.24-3.56-0.32c-0.42-3.25,9.11,0.25,3.59,3.05
			c2.72,0.48,1.82,4.69-0.84,4.37C473.77,729.3,471.15,730.21,471.84,728.41z"/>
	</g>
</g>
    <g id="Object6">
	<g>
		<path class="st0"
              d="M1003.53,569.32c0.16,11.99-17.62,11.99-17.45,0C985.92,557.33,1003.7,557.33,1003.53,569.32z"/>
	</g>
        <g>
		<path class="st0" d="M994.81,557.33v1c3.04,0,5.9,1.14,7.87,3.13c1.97,1.99,2.98,4.77,2.94,8.05c0.04,3.25-0.97,6.03-2.94,8.02
			c-1.96,1.99-4.83,3.13-7.87,3.13c-3.04,0-5.91-1.14-7.87-3.13c-1.97-1.99-2.98-4.77-2.94-8.05c-0.04-3.25,0.97-6.03,2.94-8.02
			c1.96-1.99,4.83-3.13,7.87-3.13L994.81,557.33 M994.81,557.33c-5.96,0-11.92,4.06-11.81,12.17c-0.11,8.11,5.85,12.17,11.81,12.17
			c5.96,0,11.92-4.06,11.81-12.17C1006.72,561.39,1000.76,557.33,994.81,557.33L994.81,557.33z"/>
	</g>
        <g>
		<path class="st0" d="M970.52,602.27c1.02-1.77,6.58-7.68,6.45-9.81c0.11-2.81-4.38-2.52-4.37,0.17c0.02,0.03-2.27,0-2.27,0.01
			c3.34-9.57,15.63-2.59,3.09,9.44h5.91v2.08C977.93,603.63,968.99,605.76,970.52,602.27z"/>
            <path class="st0" d="M984.39,603.87c-1.91-1.07-3.53-4.23-0.07-3.47c0.09,1.85,2.73,2.44,3.8,1.12c1.35-1.94,0.69-7.43-2.72-5.64
			c-0.61,0.85-1.91,1.05-2.92,0.9c0,0,0-8.23,0-8.23h7.96v2.08c-3.6,0.51-6.55-1.96-5.77,3.51
			C993.08,589.71,993.05,607.95,984.39,603.87z"/>
            <path class="st0" d="M993.83,601.88c3.23-0.55,2.14,1.29,2.3,3.48c0,0-2.3,2.38-2.3,2.38V601.88z"/>
            <path class="st0"
                  d="M1002.86,604.17h-2.19v-13.23l-2.22,1.36c-0.37-2.11,0.5-2.82,2.22-3.75c0,0,2.19,0,2.19,0V604.17z"/>
            <path class="st0" d="M1006.17,602.27c1.02-1.77,6.58-7.68,6.45-9.81c0.11-2.81-4.38-2.52-4.37,0.17c0.02,0.03-2.27,0-2.27,0.01
			c3.34-9.57,15.63-2.59,3.09,9.44h5.91v2.08C1013.57,603.63,1004.63,605.76,1006.17,602.27z"/>
            <path class="st0" d="M1020.03,603.87c-1.91-1.07-3.53-4.23-0.07-3.47c0.09,1.85,2.73,2.44,3.8,1.12c1.35-1.94,0.69-7.43-2.72-5.64
			c-0.61,0.85-1.91,1.05-2.92,0.9c0,0,0-8.23,0-8.23h7.96v2.08c-3.6,0.51-6.55-1.96-5.77,3.51
			C1028.72,589.71,1028.69,607.95,1020.03,603.87z"/>
	</g>
        <g>
		<path class="st0" d="M974.6,619.49c-1.14-0.31-2.53-0.78-1.18-1.85c0.93,0.87,2.74,1.14,3.78,0.5c2.18-2.65-2.86-1.92-3.74-3.33
			c-1.2-1.84,0.41-4.17,2.64-3.89c1.17,0.08,3.45,0.52,1.94,1.84c-1.07-0.93-3.68-1.18-3.78,0.62c0.09,1.55,2.42,1.15,3.41,1.73
			C980.81,616.98,977.49,620.64,974.6,619.49z"/>
            <path class="st0" d="M980.47,613.44c2.45-1.54,0.69,8.03,1.2,8.56C979.22,623.53,980.98,613.96,980.47,613.44z M982.21,619.33
			c-0.75-0.31-0.61-1.41-0.54-2.04c3.17,5.41,3.21-6.99,0-1.66c-0.64-1.68,1.3-2.88,2.69-2
			C986.31,615.17,985.52,621.02,982.21,619.33z"/>
            <path class="st0" d="M987.27,619.14c-2.58-2.44,3.15-4.85,3.31-2.26c-4.25-0.94-2.68,3.43-0.14,1.15
			C991.16,619.89,988.11,619.9,987.27,619.14z M990.44,615.66c-0.06-2.37-2.52-0.26-3.43-1.44c4.06-3.25,5.13,2.22,4.56,5.29
			C989.55,620.44,990.74,616.43,990.44,615.66z"/>
            <path class="st0" d="M994.42,619.3c-1.73-0.99-1.74-4.65,0-5.64c1.08-0.55,2.86-0.4,3.62,0.67c-0.5,0.5-0.87,0.94-1.46,0.32
			c-3.65-1.36-2.38,6.21,0.6,3.18C999.4,619.29,995.55,620.07,994.42,619.3z"/>
            <path class="st0" d="M1000.41,619.29c-4.8-3.9,4.02-9.67,3.74-2.33c-0.59-0.31-5.02,0.83-4.1-0.96c1.46,0.27,4.8-0.25,1.69-1.57
			c-2.91,0.29-1.16,5.98,1.46,3.49C1005.24,619.3,1001.43,620.04,1000.41,619.29z"/>
            <path class="st0" d="M1010.37,619.21c-4.6-3.26,1.51-13.03,4.49-5.77c-3.69-1.36-4.73-3.01-4.68,2.99c0.49,4,2.99,0.68,4.68,0.64
			C1014.59,619.15,1012.11,620.27,1010.37,619.21z"/>
	</g>
</g>
</svg>
