<svg id="a21bfb1a-b066-409f-935d-2ba63bb25f59" data-name="Layer 1" xmlns="http://www.w3.org/2000/svg"
     viewBox="0 0 747.67 741">
    <path d="M678.5,190.75A193.15,193.15,0,1,1,603.08,206a192.43,192.43,0,0,1,75.42-15.23m0-.75C571.08,190,484,277.08,484,384.5S571.08,579,678.5,579,873,491.92,873,384.5,785.92,190,678.5,190Z"
          transform="translate(-296.33 -14)" style="fill:#d6d6d6"/>
    <path d="M673.5,14.75A369.85,369.85,0,0,1,817.42,725.19,369.84,369.84,0,0,1,529.58,43.81,367.4,367.4,0,0,1,673.5,14.75m0-.75C468.88,14,303,179.88,303,384.5S468.88,755,673.5,755,1044,589.12,1044,384.5,878.12,14,673.5,14Z"
          transform="translate(-296.33 -14)" style="fill:#d6d6d6"/>
    <ellipse cx="107.45" cy="116.81" rx="17.57" ry="18.61" style="fill:#d6d6d6"/>
    <path d="M403.78,107c12.56,0,22.78,10.85,22.78,24.18s-10.22,24.17-22.78,24.17S381,144.51,381,131.18,391.22,107,403.78,107m0-1C390.65,106,380,117.27,380,131.18s10.65,25.17,23.78,25.17,23.78-11.27,23.78-25.17S416.91,106,403.78,106Z"
          transform="translate(-296.33 -14)" style="fill:#d6d6d6"/>
    <ellipse cx="636.64" cy="109.49" rx="8.85" ry="9.37" style="fill:#d6d6d6"/>
    <path d="M933,112c6,0,11,5.24,11,11.68s-4.92,11.67-11,11.67-11-5.24-11-11.67S926.92,112,933,112m0-1c-6.61,0-12,5.68-12,12.68s5.36,12.67,12,12.67,12-5.67,12-12.67S939.58,111,933,111Z"
          transform="translate(-296.33 -14)" style="fill:#d6d6d6"/>
    <ellipse cx="576.42" cy="403.43" rx="11.64" ry="12.33" style="fill:#d6d6d6"/>
    <path d="M872.75,402c8.13,0,14.75,7,14.75,15.68s-6.62,15.67-14.75,15.67-14.75-7-14.75-15.67S864.62,402,872.75,402m0-1c-8.7,0-15.75,7.47-15.75,16.68s7,16.67,15.75,16.67,15.75-7.46,15.75-16.67-7-16.68-15.75-16.68Z"
          transform="translate(-296.33 -14)" style="fill:#d6d6d6"/>
    <ellipse cx="24.48" cy="485.32" rx="8.73" ry="9.24" style="fill:#d6d6d6"/>
    <path d="M320.81,488c5.95,0,10.8,5.16,10.8,11.5s-4.85,11.5-10.8,11.5S310,505.84,310,499.5s4.85-11.5,10.81-11.5m0-1c-6.52,0-11.81,5.6-11.81,12.5s5.29,12.5,11.81,12.5,11.8-5.6,11.8-12.5-5.28-12.5-11.8-12.5Z"
          transform="translate(-296.33 -14)" style="fill:#d6d6d6"/>
    <path d="M296.52,532.27,302,525a5.8,5.8,0,0,0,.74-1.29,3.59,3.59,0,0,0,.26-1.26v0a1.89,1.89,0,0,0-.55-1.45,2.19,2.19,0,0,0-1.56-.51,2.16,2.16,0,0,0-1.54.56,2.52,2.52,0,0,0-.72,1.6h-2.27a5.85,5.85,0,0,1,.79-2.3,4.11,4.11,0,0,1,1.54-1.45,4.64,4.64,0,0,1,2.18-.5,5.45,5.45,0,0,1,2.39.48,3.32,3.32,0,0,1,1.5,1.39,4.47,4.47,0,0,1,.52,2.2v0a4.89,4.89,0,0,1-.35,1.73A7.81,7.81,0,0,1,304,526l-4.53,6.14h5.91v2.08h-8.81Z"
          transform="translate(-296.33 -14)" style="fill:#d6d6d6"/>
    <path d="M309.26,533.16a4.48,4.48,0,0,1-1.13-3.26v-7.1a4.69,4.69,0,0,1,7.78-3.28A4.52,4.52,0,0,1,317,522.8v7.1a4.49,4.49,0,0,1-1.14,3.27,5.31,5.31,0,0,1-6.64,0Zm5-1.52a2.47,2.47,0,0,0,.55-1.74v-7.1a2.52,2.52,0,0,0-.55-1.75,2.77,2.77,0,0,0-3.44,0,2.56,2.56,0,0,0-.54,1.75v7.1a2.47,2.47,0,0,0,.55,1.74,2.72,2.72,0,0,0,3.43,0Z"
          transform="translate(-296.33 -14)" style="fill:#d6d6d6"/>
    <path d="M319.35,531.88h2.3v3.48l-2.3,2.38Z" transform="translate(-296.33 -14)" style="fill:#d6d6d6"/>
    <path d="M328.37,534.17h-2.19V520.94L324,522.3V520l2.22-1.49h2.19Z" transform="translate(-296.33 -14)"
          style="fill:#d6d6d6"/>
    <path d="M333.65,533.86a4,4,0,0,1-1.61-1.39,5.05,5.05,0,0,1-.77-2.18h2.24a2.27,2.27,0,0,0,.42,1.09,1.88,1.88,0,0,0,.83.64,3.14,3.14,0,0,0,1.2.21,2.3,2.3,0,0,0,1.68-.58,2.13,2.13,0,0,0,.61-1.63v-.48a2.64,2.64,0,0,0-.57-1.81,2.07,2.07,0,0,0-1.61-.64H335V525h1.11a1.8,1.8,0,0,0,1.41-.55,2.17,2.17,0,0,0,.51-1.54v-.49a1.91,1.91,0,0,0-.53-1.43,2.15,2.15,0,0,0-1.51-.5,2.26,2.26,0,0,0-1,.21,1.91,1.91,0,0,0-.75.64,3,3,0,0,0-.44,1.09h-2.23a5.94,5.94,0,0,1,.81-2.19,3.91,3.91,0,0,1,1.51-1.38,4.45,4.45,0,0,1,2.1-.48,4.31,4.31,0,0,1,3.12,1.07,4,4,0,0,1,1.11,3v.26a3.39,3.39,0,0,1-.63,2,3.57,3.57,0,0,1-1.8,1.27,3.21,3.21,0,0,1,2,1.26,4.15,4.15,0,0,1,.71,2.49V530a4.83,4.83,0,0,1-.53,2.33,3.51,3.51,0,0,1-1.53,1.47,5.31,5.31,0,0,1-2.42.5A5.24,5.24,0,0,1,333.65,533.86Z"
          transform="translate(-296.33 -14)" style="fill:#d6d6d6"/>
    <path d="M343.34,529.88l5.24-11.31h2.26l-5.12,11.18h7.66v2h-10Zm6.73-4.89h2.14v9.19h-2.14Z"
          transform="translate(-296.33 -14)" style="fill:#d6d6d6"/>
    <path d="M960.06,123.91h-1.59v-9.62l-1.62,1v-1.65l1.62-1.08h1.59Z" transform="translate(-296.33 -14)"
          style="fill:#d6d6d6"/>
    <path d="M966.66,118.27v.28a1.18,1.18,0,0,1-.59.53,2.46,2.46,0,0,1-.94.17,2.55,2.55,0,0,1-1.43-.41,2.7,2.7,0,0,1-1-1.17,4.17,4.17,0,0,1-.34-1.75h0a4.32,4.32,0,0,1,.37-1.88,2.61,2.61,0,0,1,1.08-1.19,3.83,3.83,0,0,1,3.43,0,2.74,2.74,0,0,1,1.08,1.2,4.41,4.41,0,0,1,.37,1.9h0a6.11,6.11,0,0,1-.15,1.3,8.77,8.77,0,0,1-.45,1.37l-.09.21-.1.21-2.43,4.86H963.8Zm.08-1a2.25,2.25,0,0,0,.41-1.43h0a2.13,2.13,0,0,0-.41-1.39,1.63,1.63,0,0,0-2.33,0,2.14,2.14,0,0,0-.41,1.4h0a2.2,2.2,0,0,0,.41,1.42,1.59,1.59,0,0,0,2.33,0Z"
          transform="translate(-296.33 -14)" style="fill:#d6d6d6"/>
    <path d="M970.68,122.53l4-5.28a4.07,4.07,0,0,0,.54-.94,2.7,2.7,0,0,0,.19-.91v0a1.39,1.39,0,0,0-.4-1,1.81,1.81,0,0,0-2.26,0,1.85,1.85,0,0,0-.52,1.16h-1.65a4.13,4.13,0,0,1,.57-1.66,2.91,2.91,0,0,1,1.12-1.06,3.39,3.39,0,0,1,1.59-.36,3.79,3.79,0,0,1,1.73.35,2.4,2.4,0,0,1,1.1,1,3.18,3.18,0,0,1,.37,1.6h0a3.39,3.39,0,0,1-.25,1.25,5.09,5.09,0,0,1-.69,1.27l-3.29,4.47h4.3v1.51h-6.41Z"
          transform="translate(-296.33 -14)" style="fill:#d6d6d6"/>
    <path d="M978.92,122.24h1.67v2.53l-1.67,1.74Z" transform="translate(-296.33 -14)" style="fill:#d6d6d6"/>
    <path d="M982.59,120.79l3.81-8.23H988l-3.72,8.14h5.57v1.47h-7.3Zm4.89-3.56H989v6.69h-1.56Z"
          transform="translate(-296.33 -14)" style="fill:#d6d6d6"/>
    <path d="M991.69,120.79l3.81-8.23h1.64l-3.72,8.14H999v1.47h-7.3Zm4.9-3.56h1.55v6.69h-1.55Z"
          transform="translate(-296.33 -14)" style="fill:#d6d6d6"/>
    <path d="M958.6,139.49a4.8,4.8,0,0,1-1-.35,4,4,0,0,1-.89-.59l.74-.91a3.32,3.32,0,0,0,1.07.63,3.76,3.76,0,0,0,1.27.21,2.56,2.56,0,0,0,1.44-.34,1.1,1.1,0,0,0,.51-1h0a1,1,0,0,0-.23-.7,1.46,1.46,0,0,0-.6-.39,7,7,0,0,0-1-.23h-.07l-.09,0a9.91,9.91,0,0,1-1.39-.33,2,2,0,0,1-.92-.67,2.26,2.26,0,0,1-.38-1.4h0a2.51,2.51,0,0,1,.35-1.35,2.2,2.2,0,0,1,1-.85,4,4,0,0,1,1.63-.3,4.43,4.43,0,0,1,.9.1,4.77,4.77,0,0,1,1.72.79l-.68.95a3.44,3.44,0,0,0-1-.53,2.73,2.73,0,0,0-1-.18,2.21,2.21,0,0,0-1.35.35,1.12,1.12,0,0,0-.49,1h0a1,1,0,0,0,.25.69,1.56,1.56,0,0,0,.62.37,8.45,8.45,0,0,0,1,.25h.21a7.07,7.07,0,0,1,1.3.38,2,2,0,0,1,.86.7,2.16,2.16,0,0,1,.35,1.32h0a2.22,2.22,0,0,1-1.44,2.18,4.45,4.45,0,0,1-1.69.29A5.36,5.36,0,0,1,958.6,139.49Z"
          transform="translate(-296.33 -14)" style="fill:#d6d6d6"/>
    <path d="M964.47,133.44h1.2V142h-1.2Zm1.74,5.89a1.54,1.54,0,0,1-.62-.77l.08-1.27a1.51,1.51,0,0,0,.14.67.93.93,0,0,0,.41.42,1.3,1.3,0,0,0,.65.15,1.15,1.15,0,0,0,.91-.36,1.46,1.46,0,0,0,.33-1v-1.32a1.48,1.48,0,0,0-.33-1,1.13,1.13,0,0,0-.91-.37,1.3,1.3,0,0,0-.65.14.9.9,0,0,0-.41.41,1.45,1.45,0,0,0-.14.65l-.12-1.17a2.06,2.06,0,0,1,.72-.82,1.77,1.77,0,0,1,1-.29,2,2,0,0,1,1.1.29,1.8,1.8,0,0,1,.7.85,3.34,3.34,0,0,1,.24,1.34v1.32a3.33,3.33,0,0,1-.24,1.33,2,2,0,0,1-.72.84,2.19,2.19,0,0,1-1.14.29A1.72,1.72,0,0,1,966.21,139.33Z"
          transform="translate(-296.33 -14)" style="fill:#d6d6d6"/>
    <path d="M971.27,139.14a1.71,1.71,0,0,1-.56-1.41,1.73,1.73,0,0,1,.51-1.36,2.27,2.27,0,0,1,1.54-.45h1.73l.08,1h-1.8a1,1,0,0,0-.7.21.93.93,0,0,0,.07,1.32,1.61,1.61,0,0,0,.94.22,2.7,2.7,0,0,0,1-.14.49.49,0,0,0,.34-.46l.12.86a1.49,1.49,0,0,1-.39.4,1.56,1.56,0,0,1-.54.24,2.82,2.82,0,0,1-.68.08A2.57,2.57,0,0,1,971.27,139.14Zm3.17-3.48a1.29,1.29,0,0,0-.32-.92,1.19,1.19,0,0,0-.91-.34,2.16,2.16,0,0,0-.71.12,1.9,1.9,0,0,0-.62.31l-.87-.6a2.29,2.29,0,0,1,.91-.65,3.37,3.37,0,0,1,1.26-.23,2.86,2.86,0,0,1,1.29.27,1.8,1.8,0,0,1,.82.77,2.45,2.45,0,0,1,.28,1.22v3.91h-1.13Z"
          transform="translate(-296.33 -14)" style="fill:#d6d6d6"/>
    <path d="M978.42,139.3a2.14,2.14,0,0,1-.9-.91,3.11,3.11,0,0,1-.31-1.43v-1a3.06,3.06,0,0,1,.31-1.41,2.09,2.09,0,0,1,.9-.89,3,3,0,0,1,1.42-.31,3.7,3.7,0,0,1,.9.11,2.84,2.84,0,0,1,.75.33,2.36,2.36,0,0,1,.56.53l-.86.78a1.93,1.93,0,0,0-.61-.46,1.79,1.79,0,0,0-.72-.15,1.46,1.46,0,0,0-1.07.38,1.5,1.5,0,0,0-.38,1.09v1a1.51,1.51,0,0,0,.38,1.12,1.42,1.42,0,0,0,1.07.39,1.66,1.66,0,0,0,.73-.17,1.72,1.72,0,0,0,.6-.48l.86.83a2,2,0,0,1-.57.52,2.84,2.84,0,0,1-.75.33,3.62,3.62,0,0,1-.89.11A3.13,3.13,0,0,1,978.42,139.3Z"
          transform="translate(-296.33 -14)" style="fill:#d6d6d6"/>
    <path d="M984.41,139.29a2.15,2.15,0,0,1-.91-.93,3.2,3.2,0,0,1-.31-1.48v-.68a3.58,3.58,0,0,1,.3-1.54,2.15,2.15,0,0,1,.88-1,2.71,2.71,0,0,1,1.38-.33,2.22,2.22,0,0,1,1.3.38,2.34,2.34,0,0,1,.82,1.1,4.71,4.71,0,0,1,.29,1.73v.4h-4.1v-1h3a2,2,0,0,0-.38-1.16,1.1,1.1,0,0,0-.89-.41,1.32,1.32,0,0,0-1,.44,1.91,1.91,0,0,0-.37,1.26v.78a1.61,1.61,0,0,0,.39,1.16,1.54,1.54,0,0,0,1.14.4,2,2,0,0,0,1.35-.56l.79.79a3.36,3.36,0,0,1-1,.67,2.91,2.91,0,0,1-1.13.24A3.08,3.08,0,0,1,984.41,139.29Z"
          transform="translate(-296.33 -14)" style="fill:#d6d6d6"/>
    <path d="M995.46,131h1l3.14,8.52h-1.29L996,132.65l-2.36,6.87h-1.29Zm-1.69,5.51h4.48v1.14h-4.48Z"
          transform="translate(-296.33 -14)" style="fill:#d6d6d6"/>
    <path d="M300.6,549.49a4.8,4.8,0,0,1-1-.35,4,4,0,0,1-.89-.59l.74-.91a3.32,3.32,0,0,0,1.07.63,3.76,3.76,0,0,0,1.27.21,2.56,2.56,0,0,0,1.44-.34,1.1,1.1,0,0,0,.51-1h0a1,1,0,0,0-.23-.7,1.46,1.46,0,0,0-.6-.39,7,7,0,0,0-.95-.23h-.07l-.09,0a9.91,9.91,0,0,1-1.39-.33,2,2,0,0,1-.92-.67,2.26,2.26,0,0,1-.38-1.4h0a2.51,2.51,0,0,1,.35-1.35,2.2,2.2,0,0,1,1-.85,4,4,0,0,1,1.63-.3,4.43,4.43,0,0,1,.9.1,4.77,4.77,0,0,1,1.72.79l-.68,1a3.44,3.44,0,0,0-1-.53,2.73,2.73,0,0,0-1-.18,2.21,2.21,0,0,0-1.35.35,1.12,1.12,0,0,0-.49,1h0a1,1,0,0,0,.25.69,1.56,1.56,0,0,0,.62.37,8.45,8.45,0,0,0,1,.25h.21a7.07,7.07,0,0,1,1.3.38,2,2,0,0,1,.86.7,2.16,2.16,0,0,1,.35,1.32h0a2.22,2.22,0,0,1-1.44,2.18,4.45,4.45,0,0,1-1.69.29A5.36,5.36,0,0,1,300.6,549.49Z"
          transform="translate(-296.33 -14)" style="fill:#d6d6d6"/>
    <path d="M306.47,543.44h1.2V552h-1.2Zm1.74,5.89a1.54,1.54,0,0,1-.62-.77l.08-1.27a1.51,1.51,0,0,0,.14.67.93.93,0,0,0,.41.42,1.3,1.3,0,0,0,.65.15,1.15,1.15,0,0,0,.91-.36,1.46,1.46,0,0,0,.33-1v-1.32a1.48,1.48,0,0,0-.33-1,1.13,1.13,0,0,0-.91-.37,1.3,1.3,0,0,0-.65.14.9.9,0,0,0-.41.41,1.45,1.45,0,0,0-.14.65l-.12-1.17a2.06,2.06,0,0,1,.72-.82,1.77,1.77,0,0,1,1-.29,2,2,0,0,1,1.1.29,1.8,1.8,0,0,1,.7.85,3.34,3.34,0,0,1,.24,1.34v1.32a3.33,3.33,0,0,1-.24,1.33,2,2,0,0,1-.72.84,2.19,2.19,0,0,1-1.14.29A1.72,1.72,0,0,1,308.21,549.33Z"
          transform="translate(-296.33 -14)" style="fill:#d6d6d6"/>
    <path d="M313.27,549.14a1.71,1.71,0,0,1-.56-1.41,1.73,1.73,0,0,1,.51-1.36,2.27,2.27,0,0,1,1.54-.45h1.73l.08,1h-1.8a1,1,0,0,0-.7.21.93.93,0,0,0,.07,1.32,1.61,1.61,0,0,0,.94.22,2.7,2.7,0,0,0,1-.14.49.49,0,0,0,.34-.46l.12.86a1.49,1.49,0,0,1-.39.4,1.56,1.56,0,0,1-.54.24,2.82,2.82,0,0,1-.68.08A2.57,2.57,0,0,1,313.27,549.14Zm3.17-3.48a1.29,1.29,0,0,0-.32-.92,1.19,1.19,0,0,0-.91-.34,2.16,2.16,0,0,0-.71.12,1.9,1.9,0,0,0-.62.31l-.87-.6a2.29,2.29,0,0,1,.91-.65,3.37,3.37,0,0,1,1.26-.23,2.86,2.86,0,0,1,1.29.27,1.8,1.8,0,0,1,.82.77,2.45,2.45,0,0,1,.28,1.22v3.91h-1.13Z"
          transform="translate(-296.33 -14)" style="fill:#d6d6d6"/>
    <path d="M320.42,549.3a2.14,2.14,0,0,1-.9-.91,3.11,3.11,0,0,1-.31-1.43v-1a3.06,3.06,0,0,1,.31-1.41,2.09,2.09,0,0,1,.9-.89,3,3,0,0,1,1.42-.31,3.7,3.7,0,0,1,.9.11,2.84,2.84,0,0,1,.75.33,2.36,2.36,0,0,1,.56.53l-.86.78a1.93,1.93,0,0,0-.61-.46,1.79,1.79,0,0,0-.72-.15,1.46,1.46,0,0,0-1.07.38,1.5,1.5,0,0,0-.38,1.09v1a1.51,1.51,0,0,0,.38,1.12,1.42,1.42,0,0,0,1.07.39,1.66,1.66,0,0,0,.73-.17,1.72,1.72,0,0,0,.6-.48l.86.83a2,2,0,0,1-.57.52,2.84,2.84,0,0,1-.75.33,3.62,3.62,0,0,1-.89.11A3.13,3.13,0,0,1,320.42,549.3Z"
          transform="translate(-296.33 -14)" style="fill:#d6d6d6"/>
    <path d="M326.41,549.29a2.15,2.15,0,0,1-.91-.93,3.2,3.2,0,0,1-.31-1.48v-.68a3.58,3.58,0,0,1,.3-1.54,2.15,2.15,0,0,1,.88-1,2.71,2.71,0,0,1,1.38-.33,2.22,2.22,0,0,1,1.3.38,2.34,2.34,0,0,1,.82,1.1,4.71,4.71,0,0,1,.29,1.73v.4h-4.1v-1h3a2,2,0,0,0-.38-1.16,1.1,1.1,0,0,0-.89-.41,1.32,1.32,0,0,0-1.05.44,1.91,1.91,0,0,0-.37,1.26v.78a1.61,1.61,0,0,0,.39,1.16,1.54,1.54,0,0,0,1.14.4,2,2,0,0,0,1.35-.56l.79.79a3.36,3.36,0,0,1-1,.67,2.91,2.91,0,0,1-1.13.24A3.08,3.08,0,0,1,326.41,549.29Z"
          transform="translate(-296.33 -14)" style="fill:#d6d6d6"/>
    <path d="M335.14,541h1.19v8.52h-1.19Zm.7,7.41h2.31a2,2,0,0,0,1.32-.34,1.2,1.2,0,0,0,.42-1h0a1.73,1.73,0,0,0-.15-.75,1.14,1.14,0,0,0-.47-.48,1.83,1.83,0,0,0-.83-.16h-2.6v-1.08h2.6a1.41,1.41,0,0,0,1-.31,1.17,1.17,0,0,0,.34-.92,1.19,1.19,0,0,0-.38-1,1.7,1.7,0,0,0-1.12-.31h-2.44V541h2.66a3,3,0,0,1,1.38.28,1.84,1.84,0,0,1,.83.8,2.6,2.6,0,0,1,.28,1.23,2,2,0,0,1-.17.82,1.76,1.76,0,0,1-.52.66,1.91,1.91,0,0,1-.87.36,2,2,0,0,1,.89.37,1.93,1.93,0,0,1,.58.72,2.3,2.3,0,0,1,.2.94v0a2.33,2.33,0,0,1-.31,1.22,2,2,0,0,1-.87.81,2.92,2.92,0,0,1-1.32.29h-2.76Z"
          transform="translate(-296.33 -14)" style="fill:#d6d6d6"/>
</svg>